<svg width="70" height="60" viewBox="0 0 70 60" fill="none" xmlns="http://www.w3.org/2000/svg">
<path d="M0 5C0 2.23858 2.23858 0 5 0H65C67.7614 0 70 2.23858 70 5V55C70 57.7614 67.7614 60 65 60H5C2.23858 60 0 57.7614 0 55V5Z" fill="#FF814A" fill-opacity="0.12"/>
<path d="M56.6017 17.4317C57.3566 17.4317 57.9688 16.9069 57.9688 16.2597V3.51562C57.9688 1.57711 56.1288 0 53.8671 0H4.10156C1.83997 0 0 1.57711 0 3.51562V56.4843C0 58.4229 1.83997 60 4.10156 60H53.8671C56.1288 60 57.9688 58.4229 57.9688 56.4843V47.8509C57.9688 47.2037 57.3566 46.6791 56.6017 46.6791C55.8465 46.6791 55.2344 47.2037 55.2344 47.8509V56.4843C55.2344 57.1305 54.621 57.6562 53.8671 57.6562H4.10156C3.3477 57.6562 2.73438 57.1305 2.73438 56.4843V3.51562C2.73438 2.86946 3.3477 2.34375 4.10156 2.34375H53.8671C54.621 2.34375 55.2344 2.86946 55.2344 3.51562V16.2597C55.2344 16.9069 55.8465 17.4317 56.6017 17.4317Z" fill="#FF814A"/>
<path d="M28.9844 6.32812C22.0488 6.32812 16.4062 11.1646 16.4062 17.1093C16.4062 20.1935 17.9253 22.9786 20.355 24.9456C20.4005 24.9873 20.4489 25.0268 20.5018 25.0627C22.74 26.8181 25.7187 27.8906 28.9842 27.8906C32.2497 27.8906 35.2284 26.8181 37.4666 25.0627C37.5196 25.0268 37.568 24.9872 37.6135 24.9456C40.0435 22.9786 41.5625 20.1935 41.5625 17.1093C41.5625 11.1646 35.92 6.32812 28.9844 6.32812ZM28.9844 25.5468C26.7519 25.5468 24.6916 24.9057 23.0384 23.8279C24.2399 22.0015 26.4822 20.8593 28.9844 20.8593C31.4865 20.8593 33.7288 22.0015 34.9303 23.8279C33.2771 24.9057 31.2169 25.5468 28.9844 25.5468ZM26.7969 16.6407V15.8789C26.7969 14.8451 27.7783 14.0039 28.9844 14.0039C30.1905 14.0039 31.1719 14.8451 31.1719 15.8789V16.6407C31.1719 17.6745 30.1905 18.5157 28.9844 18.5157C27.7783 18.5157 26.7969 17.6745 26.7969 16.6407ZM36.9059 22.1114C35.8976 20.8294 34.5002 19.8326 32.8778 19.2171C33.5216 18.5039 33.9062 17.6103 33.9062 16.6407V15.8789C33.9062 13.5526 31.6985 11.6602 28.9844 11.6602C26.2703 11.6602 24.0625 13.5526 24.0625 15.8789V16.6407C24.0625 17.6103 24.4472 18.5039 25.091 19.2171C23.4685 19.8326 22.0712 20.8294 21.0628 22.1114C19.8559 20.7105 19.1406 18.9806 19.1406 17.1093C19.1406 12.4569 23.5566 8.67188 28.9844 8.67188C34.4122 8.67188 38.8281 12.4569 38.8281 17.1093C38.8281 18.9806 38.1129 20.7105 36.9059 22.1114Z" fill="#FF814A"/>
<path d="M36.3671 51.3282H28.9844C28.2294 51.3282 27.6171 51.8527 27.6171 52.5C27.6171 53.1472 28.2294 53.6718 28.9844 53.6718H36.3671C37.1222 53.6718 37.7344 53.1472 37.7344 52.5C37.7344 51.8527 37.1222 51.3282 36.3671 51.3282Z" fill="#FF814A"/>
<path d="M36.3671 44.7657H16.9531C16.1982 44.7657 15.5859 45.2902 15.5859 45.9375C15.5859 46.5847 16.1982 47.1093 16.9531 47.1093H36.3671C37.1222 47.1093 37.7344 46.5847 37.7344 45.9375C37.7344 45.2902 37.1222 44.7657 36.3671 44.7657Z" fill="#FF814A"/>
<path d="M36.3671 38.2032H16.9531C16.1982 38.2032 15.5859 38.7277 15.5859 39.375C15.5859 40.0222 16.1982 40.5468 16.9531 40.5468H36.3671C37.1222 40.5468 37.7344 40.0222 37.7344 39.375C37.7344 38.7277 37.1222 38.2032 36.3671 38.2032Z" fill="#FF814A"/>
<path d="M12.0813 31.984C11.8272 31.7659 11.4745 31.6407 11.1135 31.6407C10.7538 31.6407 10.4011 31.7659 10.1469 31.984C9.89262 32.202 9.74634 32.5042 9.74634 32.8125C9.74634 33.1207 9.89248 33.423 10.1469 33.6409C10.4026 33.859 10.7538 33.9843 11.1135 33.9843C11.4745 33.9843 11.8258 33.859 12.0813 33.6409C12.3356 33.423 12.4821 33.1207 12.4821 32.8125C12.4821 32.5042 12.3358 32.202 12.0813 31.984Z" fill="#FF814A"/>
<path d="M12.0813 38.5465C11.8258 38.3284 11.4745 38.2032 11.1135 38.2032C10.7538 38.2032 10.4026 38.3284 10.1469 38.5465C9.89262 38.7645 9.74634 39.0667 9.74634 39.375C9.74634 39.6832 9.89248 39.9855 10.1469 40.2034C10.4026 40.4215 10.7538 40.5468 11.1135 40.5468C11.4745 40.5468 11.8258 40.4215 12.0813 40.2034C12.3356 39.9855 12.4821 39.6832 12.4821 39.375C12.4821 39.0667 12.3358 38.7645 12.0813 38.5465Z" fill="#FF814A"/>
<path d="M12.0813 45.109C11.8258 44.8909 11.4745 44.7657 11.1135 44.7657C10.7538 44.7657 10.4026 44.8909 10.1469 45.109C9.89262 45.327 9.74634 45.6292 9.74634 45.9375C9.74634 46.2457 9.89248 46.548 10.1469 46.7659C10.4011 46.984 10.7538 47.1093 11.1135 47.1093C11.4745 47.1093 11.8272 46.984 12.0813 46.7659C12.3356 46.548 12.4821 46.2457 12.4821 45.9375C12.4821 45.6292 12.3358 45.327 12.0813 45.109Z" fill="#FF814A"/>
<path d="M36.3671 31.6407H16.9531C16.1982 31.6407 15.5859 32.1652 15.5859 32.8125C15.5859 33.4597 16.1982 33.9843 16.9531 33.9843H36.3671C37.1222 33.9843 37.7344 33.4597 37.7344 32.8125C37.7344 32.1652 37.1222 31.6407 36.3671 31.6407Z" fill="#FF814A"/>
<path d="M67.129 15.2718C65.8007 14.6145 64.2534 14.4399 62.7716 14.7801C61.2901 15.1205 60.0518 15.935 59.285 17.0735L42.08 42.6159C41.9858 42.756 41.9262 42.9113 41.9053 43.0719L40.6942 52.37C40.6341 52.8327 40.8991 53.2821 41.3693 53.5149C41.5818 53.6199 41.8175 53.672 42.0529 53.672C42.3388 53.672 42.6237 53.5952 42.8636 53.4437L51.6525 47.8956C51.8044 47.7998 51.9316 47.678 52.0258 47.5379L69.2305 21.9954C70.8138 19.6451 69.8711 16.6289 67.129 15.2718ZM43.7584 49.968L44.3909 45.1127L48.3478 47.0709L43.7584 49.968ZM50.3414 45.3512L45.1318 42.773L58.9383 22.2758L64.148 24.8538L50.3414 45.3512ZM66.8626 20.8235L65.5149 22.8242L60.3054 20.246L61.6531 18.2453C62.0547 17.6489 62.7032 17.2223 63.4792 17.0441C64.2555 16.8657 65.0661 16.9574 65.7617 17.3016C66.4573 17.646 66.955 18.2019 67.1629 18.867C67.371 19.5323 67.2642 20.2271 66.8626 20.8235Z" fill="#FF814A"/>
</svg>
