<svg width="189" height="87" viewBox="0 0 189 87" fill="none" xmlns="http://www.w3.org/2000/svg">
<path d="M75 0V87" stroke="#550152" stroke-opacity="0.5"/>
<path d="M74 0V87" stroke="#F27B0E"/>
<path d="M94.0654 28.2417H87.4175V25.5586H94.0654C95.3529 25.5586 96.3953 25.3535 97.1929 24.9434C97.9904 24.5332 98.5715 23.9635 98.936 23.2344C99.312 22.5052 99.5 21.6735 99.5 20.7393C99.5 19.8848 99.312 19.0815 98.936 18.3296C98.5715 17.5776 97.9904 16.9738 97.1929 16.5181C96.3953 16.0509 95.3529 15.8174 94.0654 15.8174H88.1865V38H84.8882V13.1172H94.0654C95.9453 13.1172 97.5347 13.4419 98.8335 14.0913C100.132 14.7407 101.118 15.6408 101.79 16.7915C102.462 17.9308 102.798 19.2354 102.798 20.7051C102.798 22.3001 102.462 23.6616 101.79 24.7896C101.118 25.9175 100.132 26.7777 98.8335 27.3701C97.5347 27.9512 95.9453 28.2417 94.0654 28.2417ZM126.126 24.7725V26.3447C126.126 28.2132 125.892 29.888 125.425 31.3691C124.958 32.8503 124.286 34.1092 123.409 35.146C122.531 36.1828 121.478 36.9746 120.247 37.5215C119.028 38.0684 117.661 38.3418 116.146 38.3418C114.676 38.3418 113.326 38.0684 112.095 37.5215C110.876 36.9746 109.817 36.1828 108.917 35.146C108.028 34.1092 107.339 32.8503 106.849 31.3691C106.359 29.888 106.114 28.2132 106.114 26.3447V24.7725C106.114 22.904 106.353 21.2349 106.832 19.7651C107.321 18.284 108.011 17.0251 108.899 15.9883C109.788 14.9401 110.842 14.1426 112.061 13.5957C113.292 13.0488 114.642 12.7754 116.111 12.7754C117.627 12.7754 118.994 13.0488 120.213 13.5957C121.443 14.1426 122.497 14.9401 123.375 15.9883C124.263 17.0251 124.941 18.284 125.408 19.7651C125.887 21.2349 126.126 22.904 126.126 24.7725ZM122.862 26.3447V24.7383C122.862 23.2572 122.708 21.9469 122.4 20.8076C122.104 19.6683 121.666 18.7113 121.084 17.9365C120.503 17.1618 119.791 16.575 118.948 16.1763C118.117 15.7775 117.171 15.5781 116.111 15.5781C115.086 15.5781 114.157 15.7775 113.326 16.1763C112.505 16.575 111.799 17.1618 111.207 17.9365C110.625 18.7113 110.175 19.6683 109.856 20.8076C109.537 21.9469 109.378 23.2572 109.378 24.7383V26.3447C109.378 27.8372 109.537 29.1589 109.856 30.3096C110.175 31.4489 110.631 32.4116 111.224 33.1978C111.827 33.9725 112.54 34.5592 113.36 34.958C114.192 35.3568 115.12 35.5562 116.146 35.5562C117.216 35.5562 118.168 35.3568 119 34.958C119.831 34.5592 120.532 33.9725 121.102 33.1978C121.683 32.4116 122.121 31.4489 122.417 30.3096C122.714 29.1589 122.862 27.8372 122.862 26.3447ZM150.206 13.1172V38H146.89L134.363 18.8081V38H131.065V13.1172H134.363L146.941 32.3604V13.1172H150.206ZM156.717 13.1172L163.177 25.6099L169.654 13.1172H173.396L164.817 28.7031V38H161.519V28.7031L152.94 13.1172H156.717ZM91.4336 63.4805L96.3726 46.1172H98.7651L97.3809 52.8677L92.0659 71H89.6904L91.4336 63.4805ZM86.3237 46.1172L90.2544 63.1387L91.4336 71H89.0752L83.0425 46.1172H86.3237ZM105.157 63.1216L109.002 46.1172H112.3L106.285 71H103.926L105.157 63.1216ZM99.124 46.1172L103.926 63.4805L105.669 71H103.294L98.167 52.8677L96.7656 46.1172H99.124ZM131.766 68.3169V71H118.589V68.3169H131.766ZM119.256 46.1172V71H115.958V46.1172H119.256ZM130.022 56.8154V59.4985H118.589V56.8154H130.022ZM131.595 46.1172V48.8174H118.589V46.1172H131.595ZM144.72 59.3618H138.414L138.379 56.7129H144.104C145.05 56.7129 145.876 56.5534 146.583 56.2344C147.289 55.9154 147.836 55.4596 148.223 54.8672C148.622 54.2633 148.821 53.5456 148.821 52.7139C148.821 51.8024 148.645 51.0618 148.292 50.4922C147.95 49.9111 147.42 49.4896 146.702 49.2275C145.996 48.9541 145.096 48.8174 144.002 48.8174H139.148V71H135.85V46.1172H144.002C145.278 46.1172 146.417 46.2482 147.42 46.5103C148.423 46.7609 149.271 47.1597 149.966 47.7065C150.673 48.242 151.208 48.9256 151.573 49.7573C151.937 50.589 152.12 51.5859 152.12 52.748C152.12 53.7734 151.858 54.702 151.333 55.5337C150.809 56.354 150.08 57.0262 149.146 57.5503C148.223 58.0744 147.141 58.4105 145.899 58.5586L144.72 59.3618ZM144.566 71H137.115L138.978 68.3169H144.566C145.614 68.3169 146.503 68.1346 147.232 67.77C147.972 67.4054 148.536 66.8927 148.924 66.2319C149.311 65.5597 149.505 64.7679 149.505 63.8564C149.505 62.9336 149.34 62.1361 149.009 61.4639C148.679 60.7917 148.16 60.2733 147.454 59.9087C146.748 59.5441 145.836 59.3618 144.72 59.3618H140.02L140.054 56.7129H146.48L147.181 57.6699C148.377 57.7725 149.391 58.1143 150.223 58.6953C151.054 59.265 151.687 59.9941 152.12 60.8828C152.564 61.7715 152.786 62.7513 152.786 63.8223C152.786 65.3717 152.444 66.682 151.761 67.7529C151.089 68.8125 150.137 69.6214 148.907 70.1797C147.676 70.7266 146.229 71 144.566 71Z" fill="#F27B0E"/>
<path d="M87.4175 28.2417H86.4175V29.2417H87.4175V28.2417ZM87.4175 25.5586V24.5586H86.4175V25.5586H87.4175ZM98.936 23.2344L98.0472 22.7761L98.0416 22.7872L98.936 23.2344ZM98.936 18.3296L98.0362 18.7659L98.0416 18.7768L98.936 18.3296ZM97.1929 16.5181L96.6874 17.381L96.6967 17.3863L97.1929 16.5181ZM88.1865 15.8174V14.8174H87.1865V15.8174H88.1865ZM88.1865 38V39H89.1865V38H88.1865ZM84.8882 38H83.8882V39H84.8882V38ZM84.8882 13.1172V12.1172H83.8882V13.1172H84.8882ZM101.79 16.7915L100.927 17.2959L100.929 17.2997L101.79 16.7915ZM98.8335 27.3701L99.2419 28.283L99.2485 28.2799L98.8335 27.3701ZM94.0654 27.2417H87.4175V29.2417H94.0654V27.2417ZM88.4175 28.2417V25.5586H86.4175V28.2417H88.4175ZM87.4175 26.5586H94.0654V24.5586H87.4175V26.5586ZM94.0654 26.5586C95.4473 26.5586 96.6632 26.3403 97.6502 25.8326L96.7355 24.0541C96.1275 24.3668 95.2584 24.5586 94.0654 24.5586V26.5586ZM97.6502 25.8326C98.6168 25.3355 99.3613 24.6199 99.8305 23.6816L98.0416 22.7872C97.7816 23.3072 97.364 23.7309 96.7355 24.0541L97.6502 25.8326ZM99.8248 23.6927C100.283 22.8032 100.5 21.8106 100.5 20.7393H98.5C98.5 21.5364 98.3406 22.2072 98.0472 22.7761L99.8248 23.6927ZM100.5 20.7393C100.5 19.7322 100.277 18.7755 99.8305 17.8824L98.0416 18.7768C98.347 19.3876 98.5 20.0374 98.5 20.7393H100.5ZM99.8358 17.8933C99.3746 16.9421 98.6434 16.1952 97.689 15.6498L96.6967 17.3863C97.3374 17.7524 97.7683 18.2132 98.0362 18.7659L99.8358 17.8933ZM97.6983 15.6552C96.6987 15.0697 95.464 14.8174 94.0654 14.8174V16.8174C95.2417 16.8174 96.0919 17.0321 96.6875 17.3809L97.6983 15.6552ZM94.0654 14.8174H88.1865V16.8174H94.0654V14.8174ZM87.1865 15.8174V38H89.1865V15.8174H87.1865ZM88.1865 37H84.8882V39H88.1865V37ZM85.8882 38V13.1172H83.8882V38H85.8882ZM84.8882 14.1172H94.0654V12.1172H84.8882V14.1172ZM94.0654 14.1172C95.8342 14.1172 97.261 14.4231 98.3863 14.9857L99.2807 13.1969C97.8083 12.4607 96.0564 12.1172 94.0654 12.1172V14.1172ZM98.3863 14.9857C99.5277 15.5564 100.361 16.3279 100.927 17.2959L102.654 16.2871C101.875 14.9537 100.737 13.925 99.2807 13.1969L98.3863 14.9857ZM100.929 17.2997C101.5 18.2684 101.798 19.3937 101.798 20.7051H103.798C103.798 19.077 103.424 17.5933 102.651 16.2834L100.929 17.2997ZM101.798 20.7051C101.798 22.1586 101.493 23.3347 100.931 24.2776L102.649 25.3015C103.432 23.9886 103.798 22.4417 103.798 20.7051H101.798ZM100.931 24.2776C100.372 25.2155 99.5492 25.9445 98.4185 26.4603L99.2485 28.2799C100.715 27.6108 101.864 26.6194 102.649 25.3015L100.931 24.2776ZM98.4251 26.4573C97.289 26.9656 95.8476 27.2417 94.0654 27.2417V29.2417C96.043 29.2417 97.7804 28.9368 99.2419 28.2829L98.4251 26.4573ZM120.247 37.5215L119.841 36.6077L119.838 36.6091L120.247 37.5215ZM112.095 37.5215L111.686 38.4339L111.689 38.4353L112.095 37.5215ZM108.917 35.146L108.157 35.7968L108.161 35.8016L108.917 35.146ZM106.849 31.3691L105.899 31.6832L106.849 31.3691ZM106.832 19.7651L105.882 19.4511L105.881 19.4556L106.832 19.7651ZM108.899 15.9883L109.659 16.6391L109.662 16.635L108.899 15.9883ZM112.061 13.5957L111.655 12.6819L111.652 12.6833L112.061 13.5957ZM120.213 13.5957L119.804 14.5081L119.807 14.5095L120.213 13.5957ZM123.375 15.9883L122.608 16.6301L122.615 16.6391L123.375 15.9883ZM125.408 19.7651L124.454 20.0659L124.457 20.0747L125.408 19.7651ZM122.4 20.8076L121.433 21.0593L121.435 21.0683L122.4 20.8076ZM118.948 16.1763L118.516 17.078L118.521 17.0803L118.948 16.1763ZM113.326 16.1763L112.893 15.2745L112.888 15.2769L113.326 16.1763ZM111.207 17.9365L110.412 17.329L110.407 17.3365L111.207 17.9365ZM109.856 20.8076L110.819 21.0772L109.856 20.8076ZM109.856 30.3096L108.893 30.5767L108.893 30.5792L109.856 30.3096ZM111.224 33.1978L110.425 33.7996L110.43 33.8061L110.435 33.8125L111.224 33.1978ZM113.36 34.958L112.923 35.8574L112.928 35.8597L113.36 34.958ZM121.102 33.1978L120.297 32.6034L120.296 32.6054L121.102 33.1978ZM122.417 30.3096L123.385 30.5612L123.386 30.5589L122.417 30.3096ZM125.126 24.7725V26.3447H127.126V24.7725H125.126ZM125.126 26.3447C125.126 28.1312 124.903 29.702 124.472 31.0684L126.379 31.6699C126.882 30.0741 127.126 28.2952 127.126 26.3447H125.126ZM124.472 31.0684C124.039 32.441 123.425 33.5781 122.645 34.5001L124.172 35.7919C125.146 34.6404 125.878 33.2595 126.379 31.6699L124.472 31.0684ZM122.645 34.5001C121.865 35.4228 120.932 36.1226 119.841 36.6077L120.653 38.4353C122.023 37.8267 123.198 36.9428 124.172 35.7919L122.645 34.5001ZM119.838 36.6091C118.764 37.0909 117.539 37.3418 116.146 37.3418V39.3418C117.783 39.3418 119.292 39.0458 120.656 38.4339L119.838 36.6091ZM116.146 37.3418C114.803 37.3418 113.593 37.0927 112.501 36.6077L111.689 38.4353C113.059 39.044 114.549 39.3418 116.146 39.3418V37.3418ZM112.505 36.6091C111.422 36.1233 110.479 35.4206 109.672 34.4904L108.161 35.8016C109.154 36.9449 110.331 37.8259 111.686 38.4339L112.505 36.6091ZM109.676 34.4952C108.883 33.5703 108.253 32.4301 107.798 31.0551L105.899 31.6832C106.424 33.2704 107.173 34.6481 108.157 35.7968L109.676 34.4952ZM107.798 31.0551C107.348 29.693 107.114 28.127 107.114 26.3447H105.114C105.114 28.2995 105.37 30.083 105.899 31.6832L107.798 31.0551ZM107.114 26.3447V24.7725H105.114V26.3447H107.114ZM107.114 24.7725C107.114 22.9879 107.342 21.4261 107.782 20.0747L105.881 19.4556C105.364 21.0436 105.114 22.82 105.114 24.7725H107.114ZM107.781 20.0792C108.236 18.7041 108.866 17.564 109.659 16.6391L108.14 15.3375C107.156 16.4862 106.407 17.8639 105.882 19.4511L107.781 20.0792ZM109.662 16.635C110.457 15.6973 111.391 14.9921 112.47 14.5081L111.652 12.6833C110.293 13.293 109.119 14.1829 108.137 15.3416L109.662 16.635ZM112.467 14.5095C113.558 14.0245 114.769 13.7754 116.111 13.7754V11.7754C114.515 11.7754 113.025 12.0732 111.655 12.6819L112.467 14.5095ZM116.111 13.7754C117.504 13.7754 118.729 14.0262 119.804 14.5081L120.622 12.6833C119.258 12.0714 117.749 11.7754 116.111 11.7754V13.7754ZM119.807 14.5095C120.896 14.9935 121.827 15.6971 122.608 16.6301L124.141 15.3465C123.168 14.1831 121.991 13.2917 120.619 12.6819L119.807 14.5095ZM122.615 16.6391C123.405 17.5604 124.022 18.6958 124.455 20.0659L126.362 19.4644C125.86 17.8722 125.121 16.4898 124.134 15.3375L122.615 16.6391ZM124.457 20.0747C124.897 21.4261 125.126 22.9879 125.126 24.7725H127.126C127.126 22.82 126.876 21.0436 126.359 19.4556L124.457 20.0747ZM123.862 26.3447V24.7383H121.862V26.3447H123.862ZM123.862 24.7383C123.862 23.1904 123.701 21.7896 123.366 20.547L121.435 21.0683C121.715 22.1042 121.862 23.3239 121.862 24.7383H123.862ZM123.368 20.556C123.046 19.3172 122.558 18.2352 121.884 17.3365L120.284 18.5365C120.773 19.1873 121.162 20.0194 121.433 21.0593L123.368 20.556ZM121.884 17.3365C121.21 16.4368 120.372 15.7433 119.376 15.2723L118.521 17.0803C119.211 17.4068 119.797 17.8867 120.284 18.5365L121.884 17.3365ZM119.381 15.2746C118.395 14.8021 117.298 14.5781 116.111 14.5781V16.5781C117.044 16.5781 117.838 16.7529 118.516 17.078L119.381 15.2746ZM116.111 14.5781C114.953 14.5781 113.874 14.8042 112.893 15.2746L113.758 17.078C114.44 16.7508 115.219 16.5781 116.111 16.5781V14.5781ZM112.888 15.2769C111.918 15.7485 111.093 16.4393 110.412 17.3291L112.001 18.544C112.505 17.8843 113.092 17.4016 113.763 17.0756L112.888 15.2769ZM110.407 17.3365C109.737 18.2296 109.239 19.305 108.893 20.538L110.819 21.0772C111.112 20.0315 111.514 19.1929 112.007 18.5365L110.407 17.3365ZM108.893 20.538C108.545 21.7839 108.378 23.1878 108.378 24.7383H110.378C110.378 23.3265 110.53 22.11 110.819 21.0772L108.893 20.538ZM108.378 24.7383V26.3447H110.378V24.7383H108.378ZM108.378 26.3447C108.378 27.9061 108.545 29.3205 108.893 30.5767L110.82 30.0424C110.53 28.9972 110.378 27.7684 110.378 26.3447H108.378ZM108.893 30.5792C109.239 31.8149 109.744 32.8961 110.425 33.7996L112.022 32.5959C111.518 31.9272 111.111 31.0829 110.819 30.0399L108.893 30.5792ZM110.435 33.8125C111.125 34.6983 111.955 35.3868 112.923 35.8574L113.797 34.0586C113.125 33.7317 112.53 33.2467 112.012 32.583L110.435 33.8125ZM112.928 35.8597C113.909 36.3301 114.987 36.5562 116.146 36.5562V34.5562C115.253 34.5562 114.475 34.3834 113.792 34.0563L112.928 35.8597ZM116.146 36.5562C117.342 36.5562 118.445 36.3328 119.432 35.8597L118.567 34.0563C117.891 34.3807 117.091 34.5562 116.146 34.5562V36.5562ZM119.432 35.8597C120.418 35.387 121.245 34.6912 121.907 33.7901L120.296 32.6054C119.819 33.2538 119.245 33.7315 118.567 34.0563L119.432 35.8597ZM121.906 33.7921C122.577 32.8846 123.063 31.7995 123.385 30.5612L121.45 30.0579C121.179 31.0982 120.789 31.9386 120.297 32.6034L121.906 33.7921ZM123.386 30.5589C123.708 29.3091 123.862 27.9009 123.862 26.3447H121.862C121.862 27.7736 121.72 29.0086 121.449 30.0603L123.386 30.5589ZM150.206 13.1172H151.206V12.1172H150.206V13.1172ZM150.206 38V39H151.206V38H150.206ZM146.89 38L146.053 38.5466L146.349 39H146.89V38ZM134.363 18.8081L135.201 18.2615L133.363 15.4465V18.8081H134.363ZM134.363 38V39H135.363V38H134.363ZM131.065 38H130.065V39H131.065V38ZM131.065 13.1172V12.1172H130.065V13.1172H131.065ZM134.363 13.1172L135.2 12.5701L134.904 12.1172H134.363V13.1172ZM146.941 32.3604L146.104 32.9075L147.941 35.718V32.3604H146.941ZM146.941 13.1172V12.1172H145.941V13.1172H146.941ZM149.206 13.1172V38H151.206V13.1172H149.206ZM150.206 37H146.89V39H150.206V37ZM147.728 37.4534L135.201 18.2615L133.526 19.3547L146.053 38.5466L147.728 37.4534ZM133.363 18.8081V38H135.363V18.8081H133.363ZM134.363 37H131.065V39H134.363V37ZM132.065 38V13.1172H130.065V38H132.065ZM131.065 14.1172H134.363V12.1172H131.065V14.1172ZM133.526 13.6643L146.104 32.9075L147.778 31.8132L135.2 12.5701L133.526 13.6643ZM147.941 32.3604V13.1172H145.941V32.3604H147.941ZM146.941 14.1172H150.206V12.1172H146.941V14.1172ZM156.717 13.1172L157.605 12.6579L157.325 12.1172H156.717V13.1172ZM163.177 25.6099L162.288 26.0692L163.176 27.7847L164.065 26.0701L163.177 25.6099ZM169.654 13.1172V12.1172H169.046L168.766 12.6569L169.654 13.1172ZM173.396 13.1172L174.273 13.5994L175.088 12.1172H173.396V13.1172ZM164.817 28.7031L163.941 28.2209L163.817 28.4461V28.7031H164.817ZM164.817 38V39H165.817V38H164.817ZM161.519 38H160.519V39H161.519V38ZM161.519 28.7031H162.519V28.4461L162.395 28.2209L161.519 28.7031ZM152.94 13.1172V12.1172H151.248L152.064 13.5994L152.94 13.1172ZM155.829 13.5765L162.288 26.0692L164.065 25.1505L157.605 12.6579L155.829 13.5765ZM164.065 26.0701L170.542 13.5775L168.766 12.6569L162.289 25.1496L164.065 26.0701ZM169.654 14.1172H173.396V12.1172H169.654V14.1172ZM172.52 12.635L163.941 28.2209L165.693 29.1853L174.273 13.5994L172.52 12.635ZM163.817 28.7031V38H165.817V28.7031H163.817ZM164.817 37H161.519V39H164.817V37ZM162.519 38V28.7031H160.519V38H162.519ZM162.395 28.2209L153.816 12.635L152.064 13.5994L160.643 29.1853L162.395 28.2209ZM152.94 14.1172H156.717V12.1172H152.94V14.1172ZM91.4336 63.4805L90.4717 63.2069L90.465 63.2306L90.4594 63.2546L91.4336 63.4805ZM96.3726 46.1172V45.1172H95.6173L95.4107 45.8436L96.3726 46.1172ZM98.7651 46.1172L99.7448 46.3181L99.991 45.1172H98.7651V46.1172ZM97.3809 52.8677L98.3405 53.149L98.3521 53.1092L98.3605 53.0686L97.3809 52.8677ZM92.0659 71V72H92.8149L93.0255 71.2813L92.0659 71ZM89.6904 71L88.7163 70.7742L88.4321 72H89.6904V71ZM86.3237 46.1172L87.2981 45.8922L87.1191 45.1172H86.3237V46.1172ZM90.2544 63.1387L91.2433 62.9903L91.2375 62.9517L91.2288 62.9137L90.2544 63.1387ZM91.4336 71V72H92.5948L92.4225 70.8517L91.4336 71ZM89.0752 71L88.1033 71.2356L88.2887 72H89.0752V71ZM83.0425 46.1172V45.1172H81.7711L82.0706 46.3528L83.0425 46.1172ZM105.157 63.1216L104.181 62.901L104.174 62.9339L104.169 62.9673L105.157 63.1216ZM109.002 46.1172V45.1172H108.203L108.027 45.8966L109.002 46.1172ZM112.3 46.1172L113.272 46.3522L113.571 45.1172H112.3V46.1172ZM106.285 71V72H107.072L107.257 71.235L106.285 71ZM103.926 71L102.938 70.8457L102.758 72H103.926V71ZM99.124 46.1172L100.088 45.8506L99.885 45.1172H99.124V46.1172ZM103.926 63.4805L104.9 63.2546L104.896 63.2342L104.89 63.2139L103.926 63.4805ZM105.669 71V72H106.928L106.644 70.7742L105.669 71ZM103.294 71L102.332 71.2721L102.537 72H103.294V71ZM98.167 52.8677L97.1879 53.0709L97.1951 53.1056L97.2047 53.1398L98.167 52.8677ZM96.7656 46.1172V45.1172H95.5367L95.7865 46.3204L96.7656 46.1172ZM92.3954 63.7541L97.3344 46.3908L95.4107 45.8436L90.4717 63.2069L92.3954 63.7541ZM96.3726 47.1172H98.7651V45.1172H96.3726V47.1172ZM97.7855 45.9163L96.4012 52.6668L98.3605 53.0686L99.7448 46.3181L97.7855 45.9163ZM96.4212 52.5864L91.1063 70.7187L93.0255 71.2813L98.3405 53.149L96.4212 52.5864ZM92.0659 70H89.6904V72H92.0659V70ZM90.6646 71.2258L92.4078 63.7063L90.4594 63.2546L88.7163 70.7742L90.6646 71.2258ZM85.3494 46.3422L89.28 63.3637L91.2288 62.9137L87.2981 45.8922L85.3494 46.3422ZM89.2655 63.287L90.4447 71.1483L92.4225 70.8517L91.2433 62.9903L89.2655 63.287ZM91.4336 70H89.0752V72H91.4336V70ZM90.047 70.7644L84.0143 45.8816L82.0706 46.3528L88.1033 71.2356L90.047 70.7644ZM83.0425 47.1172H86.3237V45.1172H83.0425V47.1172ZM106.132 63.3421L109.977 46.3377L108.027 45.8966L104.181 62.901L106.132 63.3421ZM109.002 47.1172H112.3V45.1172H109.002V47.1172ZM111.328 45.8822L105.313 70.765L107.257 71.235L113.272 46.3522L111.328 45.8822ZM106.285 70H103.926V72H106.285V70ZM104.914 71.1543L106.145 63.2759L104.169 62.9673L102.938 70.8457L104.914 71.1543ZM98.1602 46.3838L102.962 63.747L104.89 63.2139L100.088 45.8506L98.1602 46.3838ZM102.952 63.7063L104.695 71.2258L106.644 70.7742L104.9 63.2546L102.952 63.7063ZM105.669 70H103.294V72H105.669V70ZM104.256 70.7279L99.1293 52.5956L97.2047 53.1398L102.332 71.2721L104.256 70.7279ZM99.1461 52.6644L97.7447 45.9139L95.7865 46.3204L97.1879 53.0709L99.1461 52.6644ZM96.7656 47.1172H99.124V45.1172H96.7656V47.1172ZM131.766 68.3169H132.766V67.3169H131.766V68.3169ZM131.766 71V72H132.766V71H131.766ZM118.589 71H117.589V72H118.589V71ZM118.589 68.3169V67.3169H117.589V68.3169H118.589ZM119.256 46.1172H120.256V45.1172H119.256V46.1172ZM119.256 71V72H120.256V71H119.256ZM115.958 71H114.958V72H115.958V71ZM115.958 46.1172V45.1172H114.958V46.1172H115.958ZM130.022 56.8154H131.022V55.8154H130.022V56.8154ZM130.022 59.4985V60.4985H131.022V59.4985H130.022ZM118.589 59.4985H117.589V60.4985H118.589V59.4985ZM118.589 56.8154V55.8154H117.589V56.8154H118.589ZM131.595 46.1172H132.595V45.1172H131.595V46.1172ZM131.595 48.8174V49.8174H132.595V48.8174H131.595ZM118.589 48.8174H117.589V49.8174H118.589V48.8174ZM118.589 46.1172V45.1172H117.589V46.1172H118.589ZM130.766 68.3169V71H132.766V68.3169H130.766ZM131.766 70H118.589V72H131.766V70ZM119.589 71V68.3169H117.589V71H119.589ZM118.589 69.3169H131.766V67.3169H118.589V69.3169ZM118.256 46.1172V71H120.256V46.1172H118.256ZM119.256 70H115.958V72H119.256V70ZM116.958 71V46.1172H114.958V71H116.958ZM115.958 47.1172H119.256V45.1172H115.958V47.1172ZM129.022 56.8154V59.4985H131.022V56.8154H129.022ZM130.022 58.4985H118.589V60.4985H130.022V58.4985ZM119.589 59.4985V56.8154H117.589V59.4985H119.589ZM118.589 57.8154H130.022V55.8154H118.589V57.8154ZM130.595 46.1172V48.8174H132.595V46.1172H130.595ZM131.595 47.8174H118.589V49.8174H131.595V47.8174ZM119.589 48.8174V46.1172H117.589V48.8174H119.589ZM118.589 47.1172H131.595V45.1172H118.589V47.1172ZM144.72 59.3618V60.3618H145.028L145.283 60.1883L144.72 59.3618ZM138.414 59.3618L137.414 59.3747L137.426 60.3618H138.414V59.3618ZM138.379 56.7129V55.7129H137.366L137.379 56.7258L138.379 56.7129ZM148.223 54.8672L147.389 54.3161L147.386 54.3199L148.223 54.8672ZM148.292 50.4922L147.43 50.9992L147.435 51.0092L147.442 51.0191L148.292 50.4922ZM146.702 49.2275L146.341 50.1601L146.35 50.1636L146.359 50.1669L146.702 49.2275ZM139.148 48.8174V47.8174H138.148V48.8174H139.148ZM139.148 71V72H140.148V71H139.148ZM135.85 71H134.85V72H135.85V71ZM135.85 46.1172V45.1172H134.85V46.1172H135.85ZM147.42 46.5103L147.167 47.4778L147.177 47.4804L147.42 46.5103ZM149.966 47.7065L149.348 48.4924L149.355 48.498L149.362 48.5034L149.966 47.7065ZM151.333 55.5337L152.176 56.0721L152.18 56.0668L151.333 55.5337ZM149.146 57.5503L148.657 56.6781L148.652 56.6807L149.146 57.5503ZM145.899 58.5586L145.78 57.5656L145.538 57.5946L145.336 57.7321L145.899 58.5586ZM137.115 71L136.293 70.4297L135.203 72H137.115V71ZM138.978 68.3169V67.3169H138.454L138.156 67.7466L138.978 68.3169ZM147.232 67.77L146.79 66.8728L146.785 66.8756L147.232 67.77ZM148.924 66.2319L149.787 66.7377L149.79 66.7312L148.924 66.2319ZM149.009 61.4639L148.112 61.905L149.009 61.4639ZM140.02 59.3618L139.02 59.3489L139.007 60.3618H140.02V59.3618ZM140.054 56.7129V55.7129H139.067L139.054 56.7L140.054 56.7129ZM146.48 56.7129L147.287 56.1222L146.987 55.7129H146.48V56.7129ZM147.181 57.6699L146.374 58.2607L146.642 58.6274L147.095 58.6663L147.181 57.6699ZM150.223 58.6953L149.65 59.5151L149.658 59.5203L150.223 58.6953ZM152.12 60.8828L151.221 61.3208L151.225 61.33L152.12 60.8828ZM151.761 67.7529L150.918 67.2149L150.916 67.2172L151.761 67.7529ZM148.907 70.1797L149.313 71.0935L149.32 71.0903L148.907 70.1797ZM144.72 58.3618H138.414V60.3618H144.72V58.3618ZM139.413 59.3489L139.379 56.7L137.379 56.7258L137.414 59.3747L139.413 59.3489ZM138.379 57.7129H144.104V55.7129H138.379V57.7129ZM144.104 57.7129C145.162 57.7129 146.133 57.5346 146.994 57.1457L146.171 55.323C145.619 55.5722 144.939 55.7129 144.104 55.7129V57.7129ZM146.994 57.1457C147.857 56.7561 148.559 56.1813 149.06 55.4144L147.386 54.3199C147.113 54.738 146.721 55.0747 146.171 55.323L146.994 57.1457ZM149.058 55.4182C149.58 54.6275 149.821 53.7114 149.821 52.7139H147.821C147.821 53.3797 147.664 53.8992 147.389 54.3161L149.058 55.4182ZM149.821 52.7139C149.821 51.681 149.622 50.7404 149.141 49.9652L147.442 51.0191C147.667 51.3833 147.821 51.9239 147.821 52.7139H149.821ZM149.153 49.9852C148.678 49.1776 147.95 48.6185 147.045 48.2882L146.359 50.1669C146.89 50.3606 147.221 50.6446 147.43 50.9992L149.153 49.9852ZM147.063 48.295C146.203 47.9619 145.169 47.8174 144.002 47.8174V49.8174C145.022 49.8174 145.789 49.9463 146.341 50.1601L147.063 48.295ZM144.002 47.8174H139.148V49.8174H144.002V47.8174ZM138.148 48.8174V71H140.148V48.8174H138.148ZM139.148 70H135.85V72H139.148V70ZM136.85 71V46.1172H134.85V71H136.85ZM135.85 47.1172H144.002V45.1172H135.85V47.1172ZM144.002 47.1172C145.212 47.1172 146.263 47.2416 147.167 47.4778L147.673 45.5428C146.571 45.2548 145.344 45.1172 144.002 45.1172V47.1172ZM147.177 47.4804C148.066 47.7025 148.781 48.0463 149.348 48.4924L150.585 46.9207C149.762 46.2731 148.779 45.8193 147.662 45.5401L147.177 47.4804ZM149.362 48.5034C149.929 48.9333 150.359 49.4793 150.657 50.1588L152.489 49.3558C152.057 48.3719 151.416 47.5508 150.57 46.9096L149.362 48.5034ZM150.657 50.1588C150.953 50.8338 151.12 51.687 151.12 52.748H153.12C153.12 51.4849 152.922 50.3442 152.489 49.3558L150.657 50.1588ZM151.12 52.748C151.12 53.5933 150.907 54.3356 150.487 55.0006L152.18 56.0668C152.809 55.0684 153.12 53.9536 153.12 52.748H151.12ZM150.491 54.9953C150.064 55.6634 149.462 56.2263 148.657 56.6781L149.635 58.4224C150.698 57.8261 151.555 57.0446 152.176 56.0721L150.491 54.9953ZM148.652 56.6807C147.864 57.1285 146.913 57.4305 145.78 57.5656L146.017 59.5516C147.368 59.3905 148.583 59.0203 149.64 58.4199L148.652 56.6807ZM145.336 57.7321L144.157 58.5353L145.283 60.1883L146.462 59.3851L145.336 57.7321ZM144.566 70H137.115V72H144.566V70ZM137.936 71.5703L139.799 68.8872L138.156 67.7466L136.293 70.4297L137.936 71.5703ZM138.978 69.3169H144.566V67.3169H138.978V69.3169ZM144.566 69.3169C145.726 69.3169 146.777 69.1154 147.679 68.6644L146.785 66.8756C146.228 67.1538 145.502 67.3169 144.566 67.3169V69.3169ZM147.674 68.6672C148.576 68.2232 149.292 67.5806 149.787 66.7377L148.061 65.7262C147.781 66.2049 147.369 66.5877 146.79 66.8728L147.674 68.6672ZM149.79 66.7312C150.279 65.8825 150.505 64.9123 150.505 63.8564H148.505C148.505 64.6235 148.343 65.237 148.057 65.7326L149.79 66.7312ZM150.505 63.8564C150.505 62.8154 150.318 61.8604 149.907 61.0227L148.112 61.905C148.361 62.4118 148.505 63.0517 148.505 63.8564H150.505ZM149.907 61.0227C149.476 60.146 148.797 59.4765 147.913 59.0201L146.995 60.7973C147.524 61.07 147.882 61.4373 148.112 61.905L149.907 61.0227ZM147.913 59.0201C147.019 58.5588 145.935 58.3618 144.72 58.3618V60.3618C145.737 60.3618 146.476 60.5294 146.995 60.7973L147.913 59.0201ZM144.72 58.3618H140.02V60.3618H144.72V58.3618ZM141.02 59.3747L141.054 56.7258L139.054 56.7L139.02 59.3489L141.02 59.3747ZM140.054 57.7129H146.48V55.7129H140.054V57.7129ZM145.673 57.3036L146.374 58.2607L147.988 57.0792L147.287 56.1222L145.673 57.3036ZM147.095 58.6663C148.149 58.7566 148.987 59.0518 149.65 59.5151L150.795 57.8756C149.795 57.1768 148.605 56.7884 147.266 56.6736L147.095 58.6663ZM149.658 59.5203C150.349 59.9941 150.865 60.5911 151.221 61.3208L153.019 60.4448C152.508 59.3972 151.759 58.5358 150.788 57.8703L149.658 59.5203ZM151.225 61.33C151.595 62.0692 151.786 62.8942 151.786 63.8223H153.786C153.786 62.6084 153.533 61.4738 153.014 60.4356L151.225 61.33ZM151.786 63.8223C151.786 65.2232 151.478 66.3368 150.918 67.2149L152.604 68.291C153.41 67.0272 153.786 65.5203 153.786 63.8223H151.786ZM150.916 67.2172C150.356 68.0998 149.561 68.7847 148.494 69.269L149.32 71.0903C150.713 70.4582 151.821 69.5252 152.605 68.2886L150.916 67.2172ZM148.501 69.2659C147.424 69.7442 146.121 70 144.566 70V72C146.337 72 147.928 71.7089 149.313 71.0935L148.501 69.2659Z" fill="#550152" fill-opacity="0.5"/>
<mask id="path-5-inside-1_3_17" fill="white">
<path fill-rule="evenodd" clip-rule="evenodd" d="M0 43.781C0 26.3154 13.1694 11.9256 30.12 10L28.0048 19.281H40.9952L38.9103 10.133C55.3613 12.5127 68 26.6709 68 43.781C68 62.5587 52.7777 77.781 34 77.781C15.2223 77.781 0 62.5587 0 43.781ZM31 32.781C31 37.7516 26.9706 41.781 22 41.781C17.0294 41.781 13 37.7516 13 32.781C13 27.8105 17.0294 23.781 22 23.781C26.9706 23.781 31 27.8105 31 32.781ZM46 41.781C50.9706 41.781 55 37.7516 55 32.781C55 27.8105 50.9706 23.781 46 23.781C41.0294 23.781 37 27.8105 37 32.781C37 37.7516 41.0294 41.781 46 41.781ZM46.0485 57.8268C46.6767 56.6136 47 55.3132 47 54H44.656C44.656 55.067 44.3933 56.1235 43.8829 57.1092C43.3725 58.095 42.6244 58.9906 41.6813 59.7451C40.7383 60.4995 39.6187 61.098 38.3865 61.5063C37.1543 61.9146 35.8337 62.1248 34.5 62.1248C33.1663 62.1248 31.8457 61.9146 30.6135 61.5063C29.3813 61.098 28.2617 60.4995 27.3187 59.7451C26.3756 58.9906 25.6275 58.095 25.1171 57.1092C24.6067 56.1235 24.344 55.067 24.344 54H22C22 55.3132 22.3233 56.6136 22.9515 57.8268C23.5797 59.0401 24.5004 60.1425 25.6612 61.0711C26.8219 61.9997 28.1999 62.7362 29.7165 63.2388C31.233 63.7413 32.8585 64 34.5 64C36.1415 64 37.767 63.7413 39.2835 63.2388C40.8001 62.7362 42.1781 61.9997 43.3388 61.0711C44.4996 60.1425 45.4203 59.0401 46.0485 57.8268Z"/>
</mask>
<path fill-rule="evenodd" clip-rule="evenodd" d="M0 43.781C0 26.3154 13.1694 11.9256 30.12 10L28.0048 19.281H40.9952L38.9103 10.133C55.3613 12.5127 68 26.6709 68 43.781C68 62.5587 52.7777 77.781 34 77.781C15.2223 77.781 0 62.5587 0 43.781ZM31 32.781C31 37.7516 26.9706 41.781 22 41.781C17.0294 41.781 13 37.7516 13 32.781C13 27.8105 17.0294 23.781 22 23.781C26.9706 23.781 31 27.8105 31 32.781ZM46 41.781C50.9706 41.781 55 37.7516 55 32.781C55 27.8105 50.9706 23.781 46 23.781C41.0294 23.781 37 27.8105 37 32.781C37 37.7516 41.0294 41.781 46 41.781ZM46.0485 57.8268C46.6767 56.6136 47 55.3132 47 54H44.656C44.656 55.067 44.3933 56.1235 43.8829 57.1092C43.3725 58.095 42.6244 58.9906 41.6813 59.7451C40.7383 60.4995 39.6187 61.098 38.3865 61.5063C37.1543 61.9146 35.8337 62.1248 34.5 62.1248C33.1663 62.1248 31.8457 61.9146 30.6135 61.5063C29.3813 61.098 28.2617 60.4995 27.3187 59.7451C26.3756 58.9906 25.6275 58.095 25.1171 57.1092C24.6067 56.1235 24.344 55.067 24.344 54H22C22 55.3132 22.3233 56.6136 22.9515 57.8268C23.5797 59.0401 24.5004 60.1425 25.6612 61.0711C26.8219 61.9997 28.1999 62.7362 29.7165 63.2388C31.233 63.7413 32.8585 64 34.5 64C36.1415 64 37.767 63.7413 39.2835 63.2388C40.8001 62.7362 42.1781 61.9997 43.3388 61.0711C44.4996 60.1425 45.4203 59.0401 46.0485 57.8268Z" fill="#F27B0E"/>
<path d="M30.12 10L31.095 10.2222L31.4083 8.84721L30.0071 9.00639L30.12 10ZM28.0048 19.281L27.0298 19.0588L26.7513 20.281H28.0048V19.281ZM40.9952 19.281V20.281H42.2487L41.9702 19.0588L40.9952 19.281ZM38.9103 10.133L39.0535 9.1433L37.6116 8.93473L37.9353 10.3552L38.9103 10.133ZM47 54H48V53H47V54ZM46.0485 57.8268L45.1605 57.367L45.1605 57.367L46.0485 57.8268ZM44.656 54V53H43.656V54H44.656ZM43.8829 57.1092L42.9949 56.6494L42.9949 56.6494L43.8829 57.1092ZM41.6813 59.7451L42.306 60.5259L42.306 60.5259L41.6813 59.7451ZM38.3865 61.5063L38.072 60.5571L38.072 60.5571L38.3865 61.5063ZM30.6135 61.5063L30.928 60.5571L30.928 60.5571L30.6135 61.5063ZM27.3187 59.7451L26.694 60.5259L26.694 60.5259L27.3187 59.7451ZM25.1171 57.1092L24.2291 57.569L24.2291 57.569L25.1171 57.1092ZM24.344 54L25.344 54L25.344 53H24.344V54ZM22 54V53H21V54H22ZM22.9515 57.8268L23.8395 57.367L23.8395 57.367L22.9515 57.8268ZM29.7165 63.2388L29.4019 64.188L29.4019 64.188L29.7165 63.2388ZM39.2835 63.2388L39.5981 64.188L39.5981 64.188L39.2835 63.2388ZM30.0071 9.00639C12.5569 10.9888 -1 25.801 -1 43.781H1C1 26.8298 13.7819 12.8625 30.2328 10.9936L30.0071 9.00639ZM28.9798 19.5032L31.095 10.2222L29.145 9.7778L27.0298 19.0588L28.9798 19.5032ZM40.9952 18.281H28.0048V20.281H40.9952V18.281ZM37.9353 10.3552L40.0202 19.5032L41.9702 19.0588L39.8853 9.9108L37.9353 10.3552ZM69 43.781C69 26.1668 55.9892 11.5931 39.0535 9.1433L38.7672 11.1227C54.7333 13.4323 67 27.175 67 43.781H69ZM34 78.781C53.33 78.781 69 63.111 69 43.781H67C67 62.0064 52.2254 76.781 34 76.781V78.781ZM-1 43.781C-1 63.111 14.67 78.781 34 78.781V76.781C15.7746 76.781 1 62.0064 1 43.781H-1ZM22 42.781C27.5228 42.781 32 38.3039 32 32.781H30C30 37.1993 26.4183 40.781 22 40.781V42.781ZM12 32.781C12 38.3039 16.4772 42.781 22 42.781V40.781C17.5817 40.781 14 37.1993 14 32.781H12ZM22 22.781C16.4772 22.781 12 27.2582 12 32.781H14C14 28.3628 17.5817 24.781 22 24.781V22.781ZM32 32.781C32 27.2582 27.5228 22.781 22 22.781V24.781C26.4183 24.781 30 28.3628 30 32.781H32ZM54 32.781C54 37.1993 50.4183 40.781 46 40.781V42.781C51.5228 42.781 56 38.3039 56 32.781H54ZM46 24.781C50.4183 24.781 54 28.3628 54 32.781H56C56 27.2582 51.5228 22.781 46 22.781V24.781ZM38 32.781C38 28.3628 41.5817 24.781 46 24.781V22.781C40.4772 22.781 36 27.2582 36 32.781H38ZM46 40.781C41.5817 40.781 38 37.1993 38 32.781H36C36 38.3039 40.4772 42.781 46 42.781V40.781ZM46 54C46 55.1467 45.7181 56.29 45.1605 57.367L46.9365 58.2866C47.6352 56.9372 48 55.4798 48 54H46ZM44.656 55H47V53H44.656V55ZM44.7709 57.569C45.3518 56.4471 45.656 55.2335 45.656 54H43.656C43.656 54.9004 43.4347 55.7998 42.9949 56.6494L44.7709 57.569ZM42.306 60.5259C43.3487 59.6918 44.1907 58.6896 44.7709 57.569L42.9949 56.6494C42.5543 57.5003 41.9002 58.2894 41.0567 58.9642L42.306 60.5259ZM38.7011 62.4555C40.0373 62.0127 41.2637 61.3598 42.306 60.5259L41.0567 58.9642C40.2129 59.6392 39.2001 60.1832 38.072 60.5571L38.7011 62.4555ZM34.5 63.1248C35.9376 63.1248 37.3646 62.8984 38.7011 62.4555L38.072 60.5571C36.944 60.9308 35.7298 61.1248 34.5 61.1248V63.1248ZM30.2989 62.4555C31.6354 62.8984 33.0624 63.1248 34.5 63.1248V61.1248C33.2702 61.1248 32.056 60.9308 30.928 60.5571L30.2989 62.4555ZM26.694 60.5259C27.7363 61.3598 28.9627 62.0127 30.2989 62.4555L30.928 60.5571C29.7999 60.1832 28.7871 59.6392 27.9433 58.9642L26.694 60.5259ZM24.2291 57.569C24.8093 58.6896 25.6513 59.6918 26.694 60.5259L27.9433 58.9642C27.0998 58.2894 26.4457 57.5003 26.0051 56.6494L24.2291 57.569ZM23.344 54C23.344 55.2335 23.6482 56.4471 24.2291 57.569L26.0051 56.6494C25.5653 55.7998 25.344 54.9004 25.344 54L23.344 54ZM22 55H24.344V53H22V55ZM23.8395 57.367C23.2819 56.29 23 55.1467 23 54H21C21 55.4798 21.3648 56.9372 22.0635 58.2866L23.8395 57.367ZM26.2859 60.2902C25.2247 59.4413 24.3979 58.4454 23.8395 57.367L22.0635 58.2866C22.7615 59.6348 23.7762 60.8437 25.0365 61.8519L26.2859 60.2902ZM30.031 62.2896C28.6185 61.8215 27.3473 61.1393 26.2859 60.2902L25.0365 61.8519C26.2965 62.86 27.7813 63.651 29.4019 64.188L30.031 62.2896ZM34.5 63C32.9624 63 31.4433 62.7576 30.031 62.2896L29.4019 64.188C31.0227 64.7251 32.7546 65 34.5 65V63ZM38.969 62.2896C37.5567 62.7576 36.0376 63 34.5 63V65C36.2454 65 37.9773 64.7251 39.5981 64.188L38.969 62.2896ZM42.7141 60.2902C41.6527 61.1393 40.3815 61.8215 38.969 62.2896L39.5981 64.188C41.2187 63.651 42.7035 62.86 43.9635 61.8519L42.7141 60.2902ZM45.1605 57.367C44.6021 58.4454 43.7753 59.4413 42.7141 60.2902L43.9635 61.8519C45.2238 60.8437 46.2385 59.6348 46.9365 58.2866L45.1605 57.367Z" fill="#550152" fill-opacity="0.5" mask="url(#path-5-inside-1_3_17)"/>
</svg>
